# Blender 3.6.5
# www.blender.org
mtllib Shield.mtl
o Shield
v 0.020418 -0.000000 -0.475303
v 0.107242 35.000000 -0.467706
v 0.107242 -0.000000 -0.467707
v 0.191428 35.000000 -0.445148
v 0.191428 -0.000000 -0.445149
v 0.270418 35.000000 -0.408314
v 0.270418 -0.000000 -0.408316
v 0.341812 35.000000 -0.358324
v 0.341812 -0.000000 -0.358325
v 0.403440 35.000000 -0.296695
v 0.403440 -0.000000 -0.296697
v 0.453430 35.000000 -0.225302
v 0.453430 -0.000000 -0.225303
v 0.490264 35.000000 -0.146312
v 0.490264 -0.000000 -0.146313
v 0.512822 35.000000 -0.062126
v 0.512822 -0.000000 -0.062127
v 0.520418 35.000000 0.024698
v 0.520418 -0.000000 0.024697
v 0.512822 35.000000 0.111523
v 0.512822 -0.000000 0.111521
v 0.490264 35.000000 0.195708
v 0.490264 -0.000000 0.195707
v 0.453430 35.000000 0.274698
v 0.453430 -0.000000 0.274697
v 0.403440 35.000000 0.346092
v 0.403440 -0.000000 0.346091
v 0.341812 35.000000 0.407721
v 0.341812 -0.000000 0.407719
v 0.270418 35.000000 0.457711
v 0.270418 -0.000000 0.457710
v 0.191428 35.000000 0.494545
v 0.191428 -0.000000 0.494543
v 0.107242 35.000000 0.517102
v 0.107242 -0.000000 0.517101
v 0.020418 35.000000 0.524698
v 0.020418 -0.000000 0.524697
v -0.066406 35.000000 0.517102
v -0.066406 -0.000000 0.517101
v -0.150592 35.000000 0.494545
v -0.150592 -0.000000 0.494543
v -0.229582 35.000000 0.457711
v -0.229582 -0.000000 0.457710
v -0.300976 35.000000 0.407721
v -0.300976 -0.000000 0.407719
v -0.362605 35.000000 0.346092
v -0.362605 -0.000000 0.346091
v -0.412595 35.000000 0.274698
v -0.412595 -0.000000 0.274697
v -0.449429 35.000000 0.195708
v -0.449429 -0.000000 0.195707
v -0.471986 35.000000 0.111523
v -0.471986 -0.000000 0.111521
v -0.479582 35.000000 0.024698
v -0.479582 -0.000000 0.024697
v -0.471986 35.000000 -0.062126
v -0.471986 -0.000000 -0.062127
v -0.449429 35.000000 -0.146312
v -0.449429 -0.000000 -0.146313
v -0.412595 35.000000 -0.225302
v -0.412595 -0.000000 -0.225303
v -0.362605 35.000000 -0.296695
v -0.362605 -0.000000 -0.296697
v -0.300976 35.000000 -0.358324
v -0.300976 -0.000000 -0.358325
v -0.229582 35.000000 -0.408314
v -0.229582 -0.000000 -0.408316
v -0.150592 35.000000 -0.445148
v -0.150592 -0.000000 -0.445149
v -0.066406 35.000000 -0.467706
v -0.066406 -0.000000 -0.467707
v 0.020418 35.000000 -0.475302
v 0.020418 35.000000 0.024698
v 0.020418 -0.000000 0.024697
v 0.720418 35.925369 -0.225302
v 0.720418 25.533066 -6.225302
v 0.520418 35.925369 -0.225302
v 0.520418 25.533066 -6.225302
v 0.520418 35.925369 0.274698
v 0.520418 25.533066 6.274698
v 0.720418 35.925369 0.274698
v 0.720418 25.533066 6.274698
v 0.720418 25.100052 -5.975302
v 0.720418 25.100052 6.024698
v 0.520418 25.100052 -5.975302
v 0.520418 25.100052 6.024698
vn 0.0871 -0.0000 -0.9962
vn 0.2588 -0.0000 -0.9659
vn 0.4226 -0.0000 -0.9063
vn 0.5736 -0.0000 -0.8191
vn 0.5736 -0.0000 -0.8192
vn 0.7071 -0.0000 -0.7071
vn 0.8192 -0.0000 -0.5736
vn 0.9063 -0.0000 -0.4226
vn 0.9659 -0.0000 -0.2588
vn 0.9962 -0.0000 -0.0872
vn 0.9962 -0.0000 0.0872
vn 0.9659 -0.0000 0.2588
vn 0.9063 -0.0000 0.4226
vn 0.8192 -0.0000 0.5736
vn 0.7071 -0.0000 0.7071
vn 0.5736 -0.0000 0.8191
vn 0.5736 -0.0000 0.8192
vn 0.4226 -0.0000 0.9063
vn 0.2588 -0.0000 0.9659
vn 0.0871 -0.0000 0.9962
vn 0.0872 -0.0000 0.9962
vn -0.0872 -0.0000 0.9962
vn -0.0871 -0.0000 0.9962
vn -0.2588 -0.0000 0.9659
vn -0.4226 -0.0000 0.9063
vn -0.5736 -0.0000 0.8192
vn -0.5736 -0.0000 0.8191
vn -0.7071 -0.0000 0.7071
vn -0.8192 -0.0000 0.5736
vn -0.9063 -0.0000 0.4226
vn -0.9659 -0.0000 0.2588
vn -0.9962 -0.0000 0.0872
vn -0.9962 -0.0000 -0.0872
vn -0.9659 -0.0000 -0.2588
vn -0.9063 -0.0000 -0.4226
vn -0.8192 -0.0000 -0.5736
vn -0.7071 -0.0000 -0.7071
vn -0.5736 -0.0000 -0.8192
vn -0.5736 -0.0000 -0.8191
vn -0.4226 -0.0000 -0.9063
vn -0.2588 -0.0000 -0.9659
vn -0.0871 -0.0000 -0.9962
vn -0.0872 -0.0000 -0.9962
vn 0.0872 -0.0000 -0.9962
vn -0.0000 1.0000 -0.0000
vn -0.0000 -1.0000 -0.0000
vn -0.0000 0.5000 -0.8660
vn -0.0000 0.5000 0.8660
vn 1.0000 -0.0000 -0.0000
vn -1.0000 -0.0000 -0.0000
vn -0.0000 -0.5000 -0.8660
vn -0.0000 -0.5000 0.8660
vt 0.052957 0.000576
vt 0.050476 0.985582
vt 0.050476 0.000539
vt 0.048071 0.985471
vt 0.048071 0.000427
vt 0.045814 0.985290
vt 0.045814 0.000246
vt 0.043774 0.985044
vt 0.043774 0.000000
vt 0.021887 0.000000
vt 0.021887 1.000000
vt 0.020126 1.000000
vt 0.020126 0.000000
vt 0.018086 1.000000
vt 0.018086 0.000000
vt 0.015830 1.000000
vt 0.015829 0.000000
vt 0.013424 1.000000
vt 0.013424 0.000000
vt 0.010944 1.000000
vt 0.010943 0.000000
vt 0.008463 1.000000
vt 0.008463 0.000000
vt 0.006058 1.000000
vt 0.006057 0.000000
vt 0.003801 1.000000
vt 0.003801 0.000000
vt 0.001761 1.000000
vt 0.001761 0.000000
vt 0.000000 1.000000
vt 0.000000 0.000000
vt 0.062140 0.985619
vt 0.062140 0.000576
vt 0.064179 0.000330
vt 0.064179 0.985373
vt 0.066436 0.000148
vt 0.066436 0.985192
vt 0.068842 0.000037
vt 0.068842 0.985081
vt 0.071322 0.000000
vt 0.071322 0.985044
vt 0.073803 0.000037
vt 0.073803 0.985081
vt 0.076208 0.000148
vt 0.076208 0.985192
vt 0.078465 0.000330
vt 0.078465 0.985373
vt 0.080505 0.000576
vt 0.080505 0.985619
vt 0.021887 1.000000
vt 0.021887 -0.000000
vt 0.023648 -0.000000
vt 0.023648 1.000000
vt 0.025688 -0.000000
vt 0.025688 1.000000
vt 0.027945 -0.000000
vt 0.027945 1.000000
vt 0.030350 -0.000000
vt 0.030350 1.000000
vt 0.032831 -0.000000
vt 0.032831 1.000000
vt 0.035311 -0.000000
vt 0.035311 1.000000
vt 0.037717 -0.000000
vt 0.037717 1.000000
vt 0.039973 -0.000000
vt 0.039973 1.000000
vt 0.042013 -0.000000
vt 0.042013 1.000000
vt 0.043774 -0.000000
vt 0.043774 1.000000
vt 0.062139 0.000000
vt 0.062140 0.985044
vt 0.060100 0.985290
vt 0.060100 0.000246
vt 0.057843 0.985471
vt 0.057843 0.000427
vt 0.055438 0.985582
vt 0.055437 0.000539
vt 0.052957 0.985619
vt 0.126111 0.372619
vt 0.126111 0.370129
vt 0.140342 0.371374
vt 0.126543 0.367677
vt 0.127395 0.365337
vt 0.128640 0.379568
vt 0.127395 0.377412
vt 0.126543 0.375072
vt 0.134305 0.384321
vt 0.132148 0.383076
vt 0.130240 0.381476
vt 0.141587 0.385606
vt 0.139097 0.385606
vt 0.136645 0.385173
vt 0.148536 0.383076
vt 0.146379 0.384322
vt 0.144039 0.385173
vt 0.153289 0.377412
vt 0.152044 0.379568
vt 0.150444 0.381476
vt 0.154573 0.370129
vt 0.154573 0.372619
vt 0.154141 0.375072
vt 0.152044 0.363180
vt 0.153289 0.365337
vt 0.154141 0.367677
vt 0.146379 0.358427
vt 0.148536 0.359672
vt 0.150444 0.361273
vt 0.139097 0.357143
vt 0.141587 0.357143
vt 0.144039 0.357575
vt 0.132148 0.359672
vt 0.134305 0.358427
vt 0.136645 0.357575
vt 0.128640 0.363180
vt 0.130240 0.361273
vt 0.103685 0.359672
vt 0.105842 0.358427
vt 0.111879 0.371374
vt 0.108182 0.357575
vt 0.110634 0.357143
vt 0.098932 0.365337
vt 0.100177 0.363180
vt 0.101778 0.361273
vt 0.097648 0.372619
vt 0.097648 0.370129
vt 0.098080 0.367677
vt 0.100177 0.379568
vt 0.098932 0.377412
vt 0.098080 0.375072
vt 0.105842 0.384321
vt 0.103685 0.383076
vt 0.101778 0.381476
vt 0.113124 0.385606
vt 0.110634 0.385606
vt 0.108182 0.385173
vt 0.120073 0.383076
vt 0.117917 0.384321
vt 0.115577 0.385173
vt 0.124827 0.377412
vt 0.123581 0.379568
vt 0.121981 0.381476
vt 0.126111 0.370129
vt 0.126111 0.372619
vt 0.125678 0.375072
vt 0.123581 0.363180
vt 0.124827 0.365337
vt 0.125678 0.367677
vt 0.117917 0.358427
vt 0.120073 0.359672
vt 0.121981 0.361273
vt 0.113124 0.357143
vt 0.115577 0.357575
vt 0.091934 0.633504
vt 0.091934 0.370560
vt 0.097648 0.633504
vt 0.097648 0.370560
vt 0.091934 0.357143
vt 0.091934 0.620087
vt 0.086219 0.357143
vt 0.086219 0.620087
vt 0.080505 0.700000
vt 0.080505 0.357143
vt 0.086219 0.700000
vt 0.086219 0.357143
vt 0.080505 0.171429
vt 0.377428 0.000000
vt 0.080505 0.185714
vt 0.389800 0.007143
vt 0.377428 0.357143
vt 0.389800 0.350000
vt 0.402172 0.357143
vt 0.699095 0.185714
vt 0.699095 0.171429
vt 0.402172 0.000000
vt 0.097648 0.357143
vt 0.091934 0.357143
vt 0.091934 0.633504
vt 0.086219 0.633504
vt 0.154573 0.371429
vt 0.154573 0.357143
vt 0.160288 0.371429
vt 0.160288 0.357143
s 0
usemtl Material
f 1/1/1 2/2/1 3/3/1
f 3/3/2 2/2/2 4/4/2
f 3/3/2 4/4/2 5/5/2
f 5/5/3 4/4/3 6/6/3
f 5/5/3 6/6/3 7/7/3
f 7/7/4 6/6/4 8/8/4
f 7/7/5 8/8/5 9/9/5
f 9/10/6 8/11/6 10/12/6
f 9/10/6 10/12/6 11/13/6
f 11/13/7 10/12/7 12/14/7
f 11/13/7 12/14/7 13/15/7
f 13/15/8 12/14/8 14/16/8
f 13/15/8 14/16/8 15/17/8
f 15/17/9 14/16/9 16/18/9
f 15/17/9 16/18/9 17/19/9
f 17/19/10 16/18/10 18/20/10
f 17/19/10 18/20/10 19/21/10
f 19/21/11 18/20/11 20/22/11
f 19/21/11 20/22/11 21/23/11
f 21/23/12 20/22/12 22/24/12
f 21/23/12 22/24/12 23/25/12
f 23/25/13 22/24/13 24/26/13
f 23/25/13 24/26/13 25/27/13
f 25/27/14 24/26/14 26/28/14
f 25/27/14 26/28/14 27/29/14
f 27/29/15 26/28/15 28/30/15
f 27/29/15 28/30/15 29/31/15
f 29/32/16 28/33/16 30/34/16
f 29/32/17 30/34/17 31/35/17
f 31/35/18 30/34/18 32/36/18
f 31/35/18 32/36/18 33/37/18
f 33/37/19 32/36/19 34/38/19
f 33/37/19 34/38/19 35/39/19
f 35/39/20 34/38/20 36/40/20
f 35/39/21 36/40/21 37/41/21
f 37/41/22 36/40/22 38/42/22
f 37/41/23 38/42/23 39/43/23
f 39/43/24 38/42/24 40/44/24
f 39/43/24 40/44/24 41/45/24
f 41/45/25 40/44/25 42/46/25
f 41/45/25 42/46/25 43/47/25
f 43/47/26 42/46/26 44/48/26
f 43/47/27 44/48/27 45/49/27
f 45/50/28 44/51/28 46/52/28
f 45/50/28 46/52/28 47/53/28
f 47/53/29 46/52/29 48/54/29
f 47/53/29 48/54/29 49/55/29
f 49/55/30 48/54/30 50/56/30
f 49/55/30 50/56/30 51/57/30
f 51/57/31 50/56/31 52/58/31
f 51/57/31 52/58/31 53/59/31
f 53/59/32 52/58/32 54/60/32
f 53/59/32 54/60/32 55/61/32
f 55/61/33 54/60/33 56/62/33
f 55/61/33 56/62/33 57/63/33
f 57/63/34 56/62/34 58/64/34
f 57/63/34 58/64/34 59/65/34
f 59/65/35 58/64/35 60/66/35
f 59/65/35 60/66/35 61/67/35
f 61/67/36 60/66/36 62/68/36
f 61/67/36 62/68/36 63/69/36
f 63/69/37 62/68/37 64/70/37
f 63/69/37 64/70/37 65/71/37
f 65/72/38 64/73/38 66/74/38
f 65/72/39 66/74/39 67/75/39
f 67/75/40 66/74/40 68/76/40
f 67/75/40 68/76/40 69/77/40
f 69/77/41 68/76/41 70/78/41
f 69/77/41 70/78/41 71/79/41
f 71/79/42 70/78/42 72/80/42
f 71/79/43 72/80/43 1/1/43
f 1/1/44 72/80/44 2/2/44
f 40/81/45 38/82/45 73/83/45
f 73/83/45 38/82/45 36/84/45
f 73/83/45 36/84/45 34/85/45
f 46/86/45 44/87/45 73/83/45
f 73/83/45 44/87/45 42/88/45
f 73/83/45 42/88/45 40/81/45
f 52/89/45 50/90/45 73/83/45
f 73/83/45 50/90/45 48/91/45
f 73/83/45 48/91/45 46/86/45
f 58/92/45 56/93/45 73/83/45
f 73/83/45 56/93/45 54/94/45
f 73/83/45 54/94/45 52/89/45
f 64/95/45 62/96/45 73/83/45
f 73/83/45 62/96/45 60/97/45
f 73/83/45 60/97/45 58/92/45
f 70/98/45 68/99/45 73/83/45
f 73/83/45 68/99/45 66/100/45
f 73/83/45 66/100/45 64/95/45
f 4/101/45 2/102/45 73/83/45
f 73/83/45 2/102/45 72/103/45
f 73/83/45 72/103/45 70/98/45
f 10/104/45 8/105/45 73/83/45
f 73/83/45 8/105/45 6/106/45
f 73/83/45 6/106/45 4/101/45
f 16/107/45 14/108/45 73/83/45
f 73/83/45 14/108/45 12/109/45
f 73/83/45 12/109/45 10/104/45
f 22/110/45 20/111/45 73/83/45
f 73/83/45 20/111/45 18/112/45
f 73/83/45 18/112/45 16/107/45
f 28/113/45 26/114/45 73/83/45
f 73/83/45 26/114/45 24/115/45
f 73/83/45 24/115/45 22/110/45
f 34/85/45 32/116/45 73/83/45
f 73/83/45 32/116/45 30/117/45
f 73/83/45 30/117/45 28/113/45
f 33/118/46 35/119/46 74/120/46
f 74/120/46 35/119/46 37/121/46
f 74/120/46 37/121/46 39/122/46
f 27/123/46 29/124/46 74/120/46
f 74/120/46 29/124/46 31/125/46
f 74/120/46 31/125/46 33/118/46
f 21/126/46 23/127/46 74/120/46
f 74/120/46 23/127/46 25/128/46
f 74/120/46 25/128/46 27/123/46
f 15/129/46 17/130/46 74/120/46
f 74/120/46 17/130/46 19/131/46
f 74/120/46 19/131/46 21/126/46
f 9/132/46 11/133/46 74/120/46
f 74/120/46 11/133/46 13/134/46
f 74/120/46 13/134/46 15/129/46
f 3/135/46 5/136/46 74/120/46
f 74/120/46 5/136/46 7/137/46
f 74/120/46 7/137/46 9/132/46
f 69/138/46 71/139/46 74/120/46
f 74/120/46 71/139/46 1/140/46
f 74/120/46 1/140/46 3/135/46
f 63/141/46 65/142/46 74/120/46
f 74/120/46 65/142/46 67/143/46
f 74/120/46 67/143/46 69/138/46
f 57/144/46 59/145/46 74/120/46
f 74/120/46 59/145/46 61/146/46
f 74/120/46 61/146/46 63/141/46
f 51/147/46 53/148/46 74/120/46
f 74/120/46 53/148/46 55/149/46
f 74/120/46 55/149/46 57/144/46
f 45/150/46 47/151/46 74/120/46
f 74/120/46 47/151/46 49/152/46
f 74/120/46 49/152/46 51/147/46
f 39/122/46 41/153/46 74/120/46
f 74/120/46 41/153/46 43/154/46
f 74/120/46 43/154/46 45/150/46
f 75/155/47 76/156/47 77/157/47
f 77/157/47 76/156/47 78/158/47
f 79/159/48 80/160/48 81/161/48
f 81/161/48 80/160/48 82/162/48
f 83/163/46 84/164/46 85/165/46
f 85/165/46 84/164/46 86/166/46
f 81/167/49 82/168/49 75/169/49
f 75/169/49 82/168/49 84/170/49
f 75/169/49 84/170/49 76/171/49
f 76/171/49 84/170/49 83/172/49
f 78/173/50 85/172/50 77/174/50
f 77/174/50 85/172/50 86/170/50
f 77/174/50 86/170/50 79/175/50
f 79/175/50 86/170/50 80/176/50
f 85/177/51 78/158/51 83/178/51
f 83/178/51 78/158/51 76/156/51
f 80/160/52 86/179/52 82/162/52
f 82/162/52 86/179/52 84/180/52
f 77/181/45 79/182/45 75/183/45
f 75/183/45 79/182/45 81/184/45
